<svg width="17" height="18" viewBox="0 0 17 18" fill="none" xmlns="http://www.w3.org/2000/svg">
<path d="M0.408691 17.1423C0.408691 15.5096 1.05087 13.9437 2.19395 12.7892C3.33702 11.6347 4.88737 10.9861 6.50393 10.9861C8.12049 10.9861 9.67084 11.6347 10.8139 12.7892C11.957 13.9437 12.5992 15.5096 12.5992 17.1423H11.0754C11.0754 15.9178 10.5937 14.7434 9.73642 13.8775C8.87911 13.0116 7.71635 12.5252 6.50393 12.5252C5.29151 12.5252 4.12875 13.0116 3.27144 13.8775C2.41413 14.7434 1.9325 15.9178 1.9325 17.1423H0.408691ZM6.50393 10.2166C3.97822 10.2166 1.9325 8.15041 1.9325 5.59944C1.9325 3.04847 3.97822 0.9823 6.50393 0.9823C9.02964 0.9823 11.0754 3.04847 11.0754 5.59944C11.0754 8.15041 9.02964 10.2166 6.50393 10.2166ZM6.50393 8.67754C8.18774 8.67754 9.55155 7.30009 9.55155 5.59944C9.55155 3.89879 8.18774 2.52135 6.50393 2.52135C4.82012 2.52135 3.45631 3.89879 3.45631 5.59944C3.45631 7.30009 4.82012 8.67754 6.50393 8.67754ZM12.8155 11.5271C13.8863 12.0141 14.795 12.8031 15.4324 13.7993C16.0698 14.7954 16.4088 15.9562 16.4087 17.1423H14.8849C14.8851 16.2527 14.6308 15.382 14.1528 14.6349C13.6747 13.8877 12.9931 13.296 12.19 12.9307L12.8148 11.5271H12.8155ZM12.2914 2.83916C13.059 3.15874 13.7153 3.70144 14.1771 4.39839C14.6388 5.09535 14.8852 5.91513 14.8849 6.75373C14.8852 7.80977 14.4946 8.82777 13.7897 9.60776C13.0848 10.3877 12.1166 10.8734 11.0754 10.9692V9.42013C11.6399 9.33847 12.1636 9.07617 12.5697 8.67173C12.9757 8.2673 13.2427 7.74204 13.3315 7.17307C13.4202 6.60409 13.326 6.02137 13.0627 5.51045C12.7994 4.99953 12.3808 4.58732 11.8685 4.33435L12.2914 2.83916Z" fill="#FFB700"/>
</svg>
