<svg width="19" height="24" viewBox="0 0 19 24" fill="none" xmlns="http://www.w3.org/2000/svg">
<path d="M18.6868 23.75H16.4368V21.5C16.4368 20.6049 16.0812 19.7465 15.4483 19.1135C14.8153 18.4806 13.9569 18.125 13.0618 18.125H6.31177C5.41666 18.125 4.55822 18.4806 3.92528 19.1135C3.29235 19.7465 2.93677 20.6049 2.93677 21.5V23.75H0.686768V21.5C0.686768 20.0082 1.2794 18.5774 2.33429 17.5225C3.38918 16.4676 4.81992 15.875 6.31177 15.875H13.0618C14.5536 15.875 15.9843 16.4676 17.0392 17.5225C18.0941 18.5774 18.6868 20.0082 18.6868 21.5V23.75ZM9.68677 13.625C8.80034 13.625 7.9226 13.4504 7.10365 13.1112C6.28471 12.772 5.54059 12.2748 4.9138 11.648C4.287 11.0212 3.7898 10.2771 3.45058 9.45812C3.11136 8.63917 2.93677 7.76142 2.93677 6.875C2.93677 5.98858 3.11136 5.11084 3.45058 4.29189C3.7898 3.47294 4.287 2.72883 4.9138 2.10203C5.54059 1.47523 6.28471 0.978033 7.10365 0.638813C7.9226 0.299594 8.80034 0.125 9.68677 0.125C11.477 0.125 13.1939 0.836159 14.4597 2.10203C15.7256 3.3679 16.4368 5.08479 16.4368 6.875C16.4368 8.66521 15.7256 10.3821 14.4597 11.648C13.1939 12.9138 11.477 13.625 9.68677 13.625ZM9.68677 11.375C10.8802 11.375 12.0248 10.9009 12.8687 10.057C13.7127 9.21307 14.1868 8.06848 14.1868 6.875C14.1868 5.68153 13.7127 4.53693 12.8687 3.69302C12.0248 2.84911 10.8802 2.375 9.68677 2.375C8.49329 2.375 7.3487 2.84911 6.50479 3.69302C5.66087 4.53693 5.18677 5.68153 5.18677 6.875C5.18677 8.06848 5.66087 9.21307 6.50479 10.057C7.3487 10.9009 8.49329 11.375 9.68677 11.375Z" fill="#919BA9"/>
</svg>
