<svg width="17" height="17" viewBox="0 0 17 17" fill="none" xmlns="http://www.w3.org/2000/svg">
<path d="M8.66943 16.9823C4.25103 16.9823 0.669434 13.4007 0.669434 8.9823C0.669434 4.5639 4.25103 0.9823 8.66943 0.9823C13.0878 0.9823 16.6694 4.5639 16.6694 8.9823C16.6694 13.4007 13.0878 16.9823 8.66943 16.9823ZM8.66943 15.3823C10.3668 15.3823 11.9947 14.708 13.1949 13.5078C14.3952 12.3076 15.0694 10.6797 15.0694 8.9823C15.0694 7.28491 14.3952 5.65705 13.1949 4.45682C11.9947 3.25658 10.3668 2.5823 8.66943 2.5823C6.97205 2.5823 5.34418 3.25658 4.14395 4.45682C2.94372 5.65705 2.26943 7.28491 2.26943 8.9823C2.26943 10.6797 2.94372 12.3076 4.14395 13.5078C5.34418 14.708 6.97205 15.3823 8.66943 15.3823ZM9.46943 8.9823H12.6694V10.5823H7.86943V4.9823H9.46943V8.9823Z" fill="#FFB700"/>
</svg>
