<svg width="32" height="23" viewBox="0 0 32 23" fill="none" xmlns="http://www.w3.org/2000/svg">
<path d="M22.7702 0.0951538C25.0245 0.0951538 27.1865 0.990687 28.7806 2.58475C30.3746 4.17881 31.2702 6.34081 31.2702 8.59515V14.2618C31.2702 16.5162 30.3746 18.6782 28.7806 20.2722C27.1865 21.8663 25.0245 22.7618 22.7702 22.7618H8.60351C6.34917 22.7618 4.18717 21.8663 2.59311 20.2722C0.999049 18.6782 0.103516 16.5162 0.103516 14.2618V8.59515C0.103516 6.34081 0.999049 4.17881 2.59311 2.58475C4.18717 0.990687 6.34917 0.0951538 8.60351 0.0951538H22.7702ZM22.7702 2.92849H8.60351C7.14967 2.92849 5.75144 3.48727 4.69803 4.48926C3.64462 5.49125 3.01662 6.8598 2.94393 8.31182L2.93685 8.59515V14.2618C2.93685 15.7157 3.49563 17.1139 4.49762 18.1673C5.49962 19.2207 6.86816 19.8487 8.32018 19.9214L8.60351 19.9285H22.7702C24.224 19.9285 25.6223 19.3697 26.6757 18.3677C27.7291 17.3657 28.3571 15.9972 28.4298 14.5452L28.4368 14.2618V8.59515C28.4368 7.14131 27.8781 5.74308 26.8761 4.68967C25.8741 3.63626 24.5055 3.00826 23.0535 2.93557L22.7702 2.92849ZM12.8535 7.17849V10.0118H15.6868V12.8452H12.8521L12.8535 15.6785H10.0202L10.0188 12.8452H7.18685V10.0118H10.0202V7.17849H12.8535ZM24.1868 12.8452V15.6785H21.3535V12.8452H24.1868ZM21.3535 7.17849V10.0118H18.5202V7.17849H21.3535Z" fill="white"/>
</svg>
