<svg width="15" height="19" viewBox="0 0 15 19" fill="none" xmlns="http://www.w3.org/2000/svg">
<path d="M14.0824 10.2744L1.2753 18.8125C1.18432 18.873 1.07862 18.9078 0.969461 18.913C0.860302 18.9182 0.751769 18.8937 0.655424 18.8421C0.55908 18.7905 0.47853 18.7138 0.422355 18.6201C0.366179 18.5263 0.336482 18.4191 0.336426 18.3098V1.23365C0.336482 1.12436 0.366179 1.01714 0.422355 0.923398C0.47853 0.829657 0.55908 0.752908 0.655424 0.701326C0.751769 0.649744 0.860302 0.62526 0.969461 0.630481C1.07862 0.635703 1.18432 0.670436 1.2753 0.73098L14.0824 9.26906C14.1652 9.32424 14.233 9.39898 14.2799 9.48667C14.3269 9.57436 14.3514 9.67228 14.3514 9.77173C14.3514 9.87118 14.3269 9.9691 14.2799 10.0568C14.233 10.1445 14.1652 10.2192 14.0824 10.2744Z" fill="white"/>
</svg>
