<svg width="23" height="25" viewBox="0 0 23 25" fill="none" xmlns="http://www.w3.org/2000/svg">
<path d="M11.4368 0.125L22.1243 6.3125V18.6875L11.4368 24.875L0.749268 18.6875V6.3125L11.4368 0.125ZM11.4368 2.72487L2.99927 7.60962V17.3904L11.4368 22.2751L19.8743 17.3904V7.60962L11.4368 2.72487ZM11.4368 17C10.2433 17 9.0987 16.5259 8.25479 15.682C7.41087 14.8381 6.93677 13.6935 6.93677 12.5C6.93677 11.3065 7.41087 10.1619 8.25479 9.31802C9.0987 8.4741 10.2433 8 11.4368 8C12.6302 8 13.7748 8.4741 14.6187 9.31802C15.4627 10.1619 15.9368 11.3065 15.9368 12.5C15.9368 13.6935 15.4627 14.8381 14.6187 15.682C13.7748 16.5259 12.6302 17 11.4368 17ZM11.4368 14.75C12.0335 14.75 12.6058 14.5129 13.0278 14.091C13.4497 13.669 13.6868 13.0967 13.6868 12.5C13.6868 11.9033 13.4497 11.331 13.0278 10.909C12.6058 10.4871 12.0335 10.25 11.4368 10.25C10.84 10.25 10.2677 10.4871 9.84578 10.909C9.42382 11.331 9.18677 11.9033 9.18677 12.5C9.18677 13.0967 9.42382 13.669 9.84578 14.091C10.2677 14.5129 10.84 14.75 11.4368 14.75Z" fill="#787680"/>
</svg>
