<svg width="23" height="24" viewBox="0 0 23 24" fill="none" xmlns="http://www.w3.org/2000/svg">
<path d="M11.6868 0.822021C17.9001 0.822021 22.9368 5.85865 22.9368 12.072C22.9368 18.2854 17.9001 23.322 11.6868 23.322C5.47339 23.322 0.436768 18.2854 0.436768 12.072H2.68677C2.68677 17.0423 6.71652 21.072 11.6868 21.072C16.657 21.072 20.6868 17.0423 20.6868 12.072C20.6868 7.10177 16.657 3.07202 11.6868 3.07202C8.91477 3.07202 6.43527 4.32527 4.78489 6.29515L7.18677 8.69702H0.436768V1.94702L3.18964 4.69877C5.25177 2.32502 8.29377 0.822021 11.6868 0.822021ZM12.8118 6.44702V11.6051L16.4601 15.2535L14.8683 16.8454L10.5618 12.5366V6.44702H12.8118Z" fill="#919BA9"/>
</svg>
