<svg width="23" height="19" viewBox="0 0 23 19" fill="none" xmlns="http://www.w3.org/2000/svg">
<path d="M12.3735 14.6998V16.7618H17.3735V18.7618H5.37354V16.7618H10.3735V14.6998C8.44024 14.456 6.66235 13.515 5.37354 12.0535C4.08472 10.592 3.37357 8.71039 3.37354 6.76178V0.76178H19.3735V6.76178C19.3735 8.71039 18.6623 10.592 17.3735 12.0535C16.0847 13.515 14.3068 14.456 12.3735 14.6998ZM5.37354 2.76178V6.76178C5.37354 8.35308 6.00568 9.8792 7.13089 11.0044C8.25611 12.1296 9.78224 12.7618 11.3735 12.7618C12.9648 12.7618 14.491 12.1296 15.6162 11.0044C16.7414 9.8792 17.3735 8.35308 17.3735 6.76178V2.76178H5.37354ZM0.373535 2.76178H2.37354V6.76178H0.373535V2.76178ZM20.3735 2.76178H22.3735V6.76178H20.3735V2.76178Z" fill="#919BA9"/>
</svg>
