<svg width="19" height="23" viewBox="0 0 19 23" fill="none" xmlns="http://www.w3.org/2000/svg">
<path d="M0.253418 16.8158C1.6296 10.7265 4.57003 5.10139 8.78442 0.495754C8.85935 0.414229 8.95039 0.349147 9.05178 0.304628C9.15316 0.260109 9.26269 0.237122 9.37342 0.237122C9.48415 0.237122 9.59367 0.260109 9.69506 0.304628C9.79644 0.349147 9.88749 0.414229 9.96242 0.495754C10.1284 0.675754 10.2664 0.827754 10.3754 0.950754C14.372 5.47263 17.164 10.9291 18.4934 16.8158C16.3524 17.2668 14.1534 17.5628 11.9094 17.6898L9.82042 21.8678C9.77885 21.9507 9.71502 22.0204 9.63608 22.0692C9.55714 22.1179 9.46619 22.1437 9.37342 22.1437C9.28064 22.1437 9.1897 22.1179 9.11075 22.0692C9.03181 22.0204 8.96799 21.9507 8.92642 21.8678L6.83742 17.6898C4.62387 17.5646 2.42294 17.2725 0.253418 16.8158ZM6.95142 15.6928L8.10842 15.7588L9.37342 18.2888L10.6384 15.7588L11.7954 15.6928C13.2112 15.6126 14.622 15.4611 16.0224 15.2388C14.6957 10.6906 12.4307 6.47099 9.37342 2.85175C6.31618 6.47099 4.05118 10.6906 2.72442 15.2388C4.11942 15.4608 5.52942 15.6128 6.95142 15.6928ZM9.37342 13.7618C8.57777 13.7618 7.81471 13.4457 7.2521 12.8831C6.68949 12.3205 6.37342 11.5574 6.37342 10.7618C6.37342 9.9661 6.68949 9.20304 7.2521 8.64043C7.81471 8.07782 8.57777 7.76175 9.37342 7.76175C10.1691 7.76175 10.9321 8.07782 11.4947 8.64043C12.0573 9.20304 12.3734 9.9661 12.3734 10.7618C12.3734 11.5574 12.0573 12.3205 11.4947 12.8831C10.9321 13.4457 10.1691 13.7618 9.37342 13.7618ZM9.37342 11.7618C9.63863 11.7618 9.89299 11.6564 10.0805 11.4689C10.2681 11.2813 10.3734 11.027 10.3734 10.7618C10.3734 10.4965 10.2681 10.2422 10.0805 10.0546C9.89299 9.86711 9.63863 9.76175 9.37342 9.76175C9.1082 9.76175 8.85385 9.86711 8.66631 10.0546C8.47878 10.2422 8.37342 10.4965 8.37342 10.7618C8.37342 11.027 8.47878 11.2813 8.66631 11.4689C8.85385 11.6564 9.1082 11.7618 9.37342 11.7618Z" fill="#919BA9"/>
</svg>
