<svg width="21" height="22" viewBox="0 0 21 22" fill="none" xmlns="http://www.w3.org/2000/svg">
<path d="M10.3735 0.76178C15.8965 0.76178 20.3735 5.23878 20.3735 10.7618V14.5258C20.3735 14.8973 20.27 15.2614 20.0747 15.5774C19.8793 15.8934 19.5998 16.1487 19.2675 16.3148L16.3735 17.7618V18.7618C16.3736 19.527 16.0812 20.2633 15.5563 20.82C15.0313 21.3768 14.3134 21.7119 13.5495 21.7568L13.3235 21.7618C13.3455 21.6529 13.3602 21.5426 13.3675 21.4318L13.3735 21.2618V20.7618C13.3737 20.2572 13.1831 19.7712 12.84 19.4012C12.4969 19.0312 12.0267 18.8046 11.5235 18.7668L11.3735 18.7618H9.37354C8.86896 18.7616 8.38297 18.9522 8.01299 19.2953C7.64301 19.6384 7.41638 20.1086 7.37854 20.6118L7.37354 20.7618V21.2618C7.37354 21.4328 7.39054 21.6008 7.42354 21.7618H7.37354C6.57789 21.7618 5.81482 21.4457 5.25221 20.8831C4.68961 20.3205 4.37354 19.5574 4.37354 18.7618V17.7618L1.47954 16.3148C1.14707 16.1486 0.867473 15.8932 0.672114 15.577C0.476755 15.2608 0.373362 14.8964 0.373535 14.5248V10.7618C0.373535 5.23878 4.85054 0.76178 10.3735 0.76178ZM10.3735 2.76178C8.29511 2.7618 6.29828 3.57072 4.80583 5.01725C3.31338 6.46378 2.44249 8.43437 2.37754 10.5118L2.37354 10.7618V14.5258L6.37354 16.5258V18.1168L6.44853 18.0328C7.15684 17.2725 8.13369 16.8183 9.17154 16.7668L9.37354 16.7618L11.4465 16.7628L11.6695 16.7728C12.6685 16.8468 13.5595 17.2828 14.2195 17.9498L14.3735 18.1168V16.5258L18.3735 14.5258V10.7618C18.3735 8.64005 17.5307 6.60522 16.0304 5.10493C14.5301 3.60463 12.4953 2.76178 10.3735 2.76178ZM6.37354 9.76178C6.90397 9.76178 7.41268 9.97249 7.78775 10.3476C8.16282 10.7226 8.37354 11.2313 8.37354 11.7618C8.37354 12.2922 8.16282 12.8009 7.78775 13.176C7.41268 13.5511 6.90397 13.7618 6.37354 13.7618C5.8431 13.7618 5.33439 13.5511 4.95932 13.176C4.58425 12.8009 4.37354 12.2922 4.37354 11.7618C4.37354 11.2313 4.58425 10.7226 4.95932 10.3476C5.33439 9.97249 5.8431 9.76178 6.37354 9.76178ZM14.3735 9.76178C14.904 9.76178 15.4127 9.97249 15.7877 10.3476C16.1628 10.7226 16.3735 11.2313 16.3735 11.7618C16.3735 12.2922 16.1628 12.8009 15.7877 13.176C15.4127 13.5511 14.904 13.7618 14.3735 13.7618C13.8431 13.7618 13.3344 13.5511 12.9593 13.176C12.5842 12.8009 12.3735 12.2922 12.3735 11.7618C12.3735 11.2313 12.5842 10.7226 12.9593 10.3476C13.3344 9.97249 13.8431 9.76178 14.3735 9.76178Z" fill="#46A6F8"/>
</svg>
