<svg width="21" height="21" viewBox="0 0 21 21" fill="none" xmlns="http://www.w3.org/2000/svg">
<path d="M10.3735 0.76178C15.8965 0.76178 20.3735 5.23878 20.3735 10.7618C20.3735 16.2848 15.8965 20.7618 10.3735 20.7618C4.85054 20.7618 0.373535 16.2848 0.373535 10.7618C0.373535 5.23878 4.85054 0.76178 10.3735 0.76178ZM12.0435 14.7618H8.70354L7.32353 16.6588L7.87753 18.3648C8.68322 18.6286 9.52575 18.7627 10.3735 18.7618C11.2445 18.7618 12.0835 18.6218 12.8695 18.3648L13.4225 16.6588L12.0425 14.7618H12.0435ZM3.66754 9.63378L2.37554 10.5708L2.37354 10.7618C2.37354 12.4918 2.92253 14.0928 3.85554 15.4018H5.76554L7.08854 13.5818L6.06053 10.4118L3.66754 9.63378ZM17.0795 9.63378L14.6865 10.4118L13.6585 13.5818L14.9805 15.4018H16.8905C17.8574 14.048 18.376 12.4254 18.3735 10.7618L18.3705 10.5718L17.0795 9.63378ZM10.3735 8.29778L8.02954 9.99978L8.92554 12.7618H11.8205L12.7165 9.99978L10.3735 8.29778ZM12.6645 3.09478L11.3735 4.03478V6.55178L14.0675 8.50878L16.3065 7.78178L16.8605 6.07878C15.8282 4.64965 14.3534 3.60083 12.6645 3.09478ZM8.08154 3.09478C6.39294 3.60129 4.91849 4.65046 3.88654 6.07978L4.44054 7.78178L6.67953 8.50878L9.37354 6.55178V4.03478L8.08154 3.09478Z" fill="#919BA9"/>
</svg>
